<svg width="30" height="30" viewBox="0 0 30 30" fill="none" xmlns="http://www.w3.org/2000/svg">
<path fill-rule="evenodd" clip-rule="evenodd" d="M26.1302 15.1605C26.106 16.9196 25.6657 18.8147 24.6713 20.5661C24.1285 21.5221 23.449 22.3716 22.6567 23.132C21.6426 24.1052 20.4938 24.8749 19.1932 25.4118C18.2805 25.7886 17.3341 26.0407 16.355 26.175C15.7321 26.2605 15.1084 26.3211 14.4795 26.2921C13.9658 26.2684 13.4522 26.236 12.9593 26.0666C12.6572 25.9628 12.3743 25.827 12.1407 25.6022C11.806 25.2802 11.6926 24.8808 11.7278 24.4294C11.75 24.1451 11.8315 23.8749 11.9273 23.6084C12.5109 21.986 13.3271 20.4971 14.4711 19.1989C15.5418 17.9839 16.7651 16.9525 18.1965 16.1857C18.6326 15.9521 19.1026 15.9652 19.5191 16.2457C20.8168 17.1195 22.8985 16.5417 23.2838 14.6668C23.5658 13.2948 22.6758 12.0086 21.3032 11.747C20.7994 11.651 20.3137 11.7249 19.8481 11.9366C19.1267 12.2646 18.6692 12.8138 18.4812 13.5829C18.4053 13.8934 18.2526 14.1456 17.9805 14.3199C17.9135 14.3629 17.8427 14.3996 17.7658 14.4191C17.0117 14.6112 16.3054 14.9285 15.6054 15.2578C13.5603 16.22 11.779 17.5472 10.2304 19.1886C9.67797 19.774 9.19134 20.4114 8.77815 21.1044C8.56962 21.4541 8.34981 21.7977 8.03109 22.0632C7.89564 22.176 7.75167 22.2736 7.58781 22.3413C7.17264 22.5128 6.80139 22.4385 6.47556 22.137C6.20118 21.8831 6.05037 21.5549 5.9481 21.2035C5.78457 20.6415 5.76816 20.0663 5.82534 19.4888C5.95026 18.2265 6.4092 17.0684 6.94722 15.936C7.4754 14.8242 8.19504 13.8405 8.97795 12.8988C9.43857 12.3447 9.94947 11.8416 10.5003 11.3784C10.552 11.3349 10.6048 11.2891 10.6648 11.26C10.8957 11.1478 11.1133 11.1462 11.3287 11.3173C11.6274 11.5544 11.965 11.7265 12.3288 11.8422C12.7981 11.9914 13.2681 11.9572 13.7292 11.8109C14.6577 11.5163 15.2453 10.8978 15.4507 9.93851C15.7355 8.60771 14.8636 7.28434 13.5263 7.02778C12.9286 6.91309 12.3379 6.96166 11.7988 7.26583C11.1423 7.63621 10.782 8.22716 10.627 8.95184C10.5875 9.13652 10.5335 9.31289 10.4234 9.4679C10.3204 9.61285 10.1983 9.73742 10.0292 9.80456C9.15756 10.1507 8.3604 10.6328 7.58256 11.1489C6.85983 11.6284 6.18612 12.1695 5.57115 12.7824C5.35455 12.9982 5.15577 13.2299 4.96173 13.4658C4.86054 13.5888 4.74864 13.7004 4.61058 13.782C4.33593 13.9444 4.10379 13.8705 3.97803 13.5762C3.9039 13.4028 3.87759 13.218 3.87198 13.0302C3.85608 12.4977 3.96363 11.9845 4.12401 11.4816C4.5375 10.1849 5.1834 9.01268 6.03402 7.95257C7.13127 6.5851 8.46336 5.51443 10.0605 4.78108C11.1297 4.2901 12.2428 3.95098 13.4118 3.79777C14.1832 3.69664 14.9564 3.66739 15.7297 3.74413C18.0634 3.97567 20.179 4.76158 22.0051 6.26023C23.0749 7.13818 23.9337 8.19619 24.629 9.38903C25.3046 10.5478 25.7599 11.7874 25.9859 13.1108C26.068 13.5914 26.1302 14.3273 26.1302 15.1605Z" fill="#FFCB09"/>
</svg>
