<svg width="33" height="33" viewBox="0 0 33 33" fill="none" xmlns="http://www.w3.org/2000/svg">
<defs>
<radialGradient id="paint0_radial_35_345" cx="0" cy="0" r="1" gradientUnits="userSpaceOnUse" gradientTransform="translate(16.2953 16.3697) rotate(-19.0982) scale(2.79488 102.374)">
<stop/>
<stop offset="1" stop-opacity="0"/>
</radialGradient>
<radialGradient id="paint1_radial_35_345" cx="0" cy="0" r="1" gradientUnits="userSpaceOnUse" gradientTransform="translate(16.2953 16.3697) rotate(-19.0982) scale(2.79488 102.374)">
<stop/>
<stop offset="1" stop-opacity="0"/>
</radialGradient>
</defs>
<path fill-rule="evenodd" clip-rule="evenodd" d="M18.2705 5.32227L18.2618 10.2691L18.2531 15.216L17.8461 14.0676C17.846 14.0672 17.8455 14.0658 17.8453 14.0654L17.3194 25.0784C17.8365 26.5387 18.1135 27.3182 18.1166 27.3213C18.1207 27.3254 18.4154 27.3432 18.7715 27.3608C19.8504 27.4144 21.1873 27.5291 22.2015 27.6551C22.4364 27.6843 22.6385 27.6992 22.6506 27.6883C22.6628 27.6774 22.6694 22.6406 22.6653 16.4954L22.6579 5.32227H20.4642H18.2705Z" fill="#B1060F" stroke="black" stroke-width="0.0820533"/>
<path fill-rule="evenodd" clip-rule="evenodd" d="M10.3345 5.30762V16.492C10.3345 22.6435 10.3406 27.6825 10.3479 27.6899C10.3553 27.6973 10.7362 27.6613 11.1945 27.61C11.6527 27.5587 12.286 27.4949 12.6019 27.4682C13.0862 27.4273 14.5323 27.3343 14.6998 27.3333C14.7485 27.333 14.7516 27.0817 14.7587 22.596L14.7661 17.8591L15.116 18.8491C15.1701 19.0021 15.187 19.0499 15.2397 19.1989L15.7655 8.1886C15.6541 7.87362 15.7125 8.03897 15.5848 7.67799C15.1552 6.46336 14.7907 5.43313 14.7747 5.38859L14.7456 5.30762H12.5401H10.3345Z" fill="#B1060F" stroke="black" stroke-width="0.0820533"/>
<path fill-rule="evenodd" clip-rule="evenodd" d="M10.3345 5.30762V11.5858L14.7572 23.3175C14.7576 23.0486 14.7582 22.9034 14.7587 22.596L14.7661 17.8591L15.116 18.8491C17.0637 24.3603 18.1101 27.3152 18.1162 27.3214C18.1203 27.3255 18.415 27.3432 18.7711 27.3609C19.85 27.4144 21.1869 27.5292 22.2011 27.6552C22.436 27.6843 22.6381 27.6993 22.6502 27.6884C22.6586 27.6809 22.6641 25.2112 22.6655 21.7272L18.2636 9.0716L18.2614 10.2692L18.2527 15.2161L17.8457 14.0677C17.448 12.9456 17.1825 12.1952 15.5848 7.67799C15.1552 6.46336 14.7907 5.43313 14.7747 5.38859L14.7456 5.30762H12.5401H10.3345H10.3345Z" fill="url(#paint0_radial_35_345)"/>
<path fill-rule="evenodd" clip-rule="evenodd" d="M10.3348 5.30762L14.7663 17.8648V17.8591L15.1162 18.8491C17.0639 24.3603 18.1103 27.3152 18.1165 27.3214C18.1205 27.3255 18.4152 27.3432 18.7713 27.3609C19.8502 27.4144 21.1871 27.5292 22.2013 27.6552C22.435 27.6842 22.636 27.6991 22.6501 27.6885L18.2529 15.2138V15.2161L17.8459 14.0677C17.4482 12.9456 17.1827 12.1952 15.585 7.67799C15.1554 6.46336 14.7909 5.43313 14.7749 5.38859L14.7458 5.30762H12.5403H10.3348V5.30762Z" fill="#E50914"/>
<path fill-rule="evenodd" clip-rule="evenodd" d="M18.2705 5.32227L18.2618 10.2691L18.2531 15.216L17.8461 14.0676C17.846 14.0672 17.8455 14.0658 17.8453 14.0654L17.3194 25.0784C17.8365 26.5387 18.1135 27.3182 18.1166 27.3213C18.1207 27.3254 18.4154 27.3432 18.7715 27.3608C19.8504 27.4144 21.1873 27.5291 22.2015 27.6551C22.4364 27.6843 22.6385 27.6992 22.6506 27.6883C22.6628 27.6774 22.6694 22.6406 22.6653 16.4954L22.6579 5.32227H20.4642H18.2705Z" fill="#B1060F" stroke="black" stroke-width="0.0820533"/>
<path fill-rule="evenodd" clip-rule="evenodd" d="M10.3345 5.30762V16.492C10.3345 22.6435 10.3406 27.6825 10.3479 27.6899C10.3553 27.6973 10.7362 27.6613 11.1945 27.61C11.6527 27.5587 12.286 27.4949 12.6019 27.4682C13.0862 27.4273 14.5323 27.3343 14.6998 27.3333C14.7485 27.333 14.7516 27.0817 14.7587 22.596L14.7661 17.8591L15.116 18.8491C15.1701 19.0021 15.187 19.0499 15.2397 19.1989L15.7655 8.1886C15.6541 7.87362 15.7125 8.03897 15.5848 7.67799C15.1552 6.46336 14.7907 5.43313 14.7747 5.38859L14.7456 5.30762H12.5401H10.3345Z" fill="#B1060F" stroke="black" stroke-width="0.0820533"/>
<path fill-rule="evenodd" clip-rule="evenodd" d="M10.3345 5.30762V11.5858L14.7572 23.3175C14.7576 23.0486 14.7582 22.9034 14.7587 22.596L14.7661 17.8591L15.116 18.8491C17.0637 24.3603 18.1101 27.3152 18.1162 27.3214C18.1203 27.3255 18.415 27.3432 18.7711 27.3609C19.85 27.4144 21.1869 27.5292 22.2011 27.6552C22.436 27.6843 22.6381 27.6993 22.6502 27.6884C22.6586 27.6809 22.6641 25.2112 22.6655 21.7272L18.2636 9.0716L18.2614 10.2692L18.2527 15.2161L17.8457 14.0677C17.448 12.9456 17.1825 12.1952 15.5848 7.67799C15.1552 6.46336 14.7907 5.43313 14.7747 5.38859L14.7456 5.30762H12.5401H10.3345H10.3345Z" fill="url(#paint1_radial_35_345)"/>
<path fill-rule="evenodd" clip-rule="evenodd" d="M10.3348 5.30762L14.7663 17.8648V17.8591L15.1162 18.8491C17.0639 24.3603 18.1103 27.3152 18.1165 27.3214C18.1205 27.3255 18.4152 27.3432 18.7713 27.3609C19.8502 27.4144 21.1871 27.5292 22.2013 27.6552C22.435 27.6842 22.636 27.6991 22.6501 27.6885L18.2529 15.2138V15.2161L17.8459 14.0677C17.4482 12.9456 17.1827 12.1952 15.585 7.67799C15.1554 6.46336 14.7909 5.43313 14.7749 5.38859L14.7458 5.30762H12.5403H10.3348V5.30762Z" fill="#E50914"/>
</svg>
