<svg width="30" height="20" viewBox="0 0 30 20" fill="none" xmlns="http://www.w3.org/2000/svg">
<g opacity="0.2" clip-path="url(#clip0_35_274)">
<path d="M18.9584 3.48438H11.0445V16.5131H18.9584V3.48438Z" fill="white"/>
<path d="M11.8591 10.0001C11.8581 8.74551 12.1403 7.50716 12.6842 6.37875C13.2281 5.25033 14.0195 4.26141 14.9986 3.48683C13.786 2.52623 12.3297 1.92889 10.7962 1.76309C9.26273 1.59728 7.71389 1.86969 6.32673 2.54918C4.93957 3.22867 3.77005 4.28783 2.95183 5.60561C2.13361 6.92339 1.69971 8.44662 1.69971 10.0012C1.69971 11.5558 2.13361 13.079 2.95183 14.3968C3.77005 15.7146 4.93957 16.7737 6.32673 17.4532C7.71389 18.1327 9.26273 18.4051 10.7962 18.2393C12.3297 18.0735 13.786 17.4762 14.9986 16.5156C14.0192 15.7408 13.2276 14.7515 12.6837 13.6226C12.1397 12.4938 11.8578 11.255 11.8591 10.0001Z" fill="#DCC7FF"/>
<path d="M27.513 15.1347V14.8677H27.6271V14.8125H27.3554V14.8677H27.4628V15.1347H27.513ZM28.0404 15.1347V14.8125H27.9582L27.8623 15.0426L27.7664 14.8125H27.6842V15.1347H27.7436V14.8907L27.8326 15.1002H27.8943L27.9833 14.8907V15.1347H28.0404Z" fill="#F79E1B"/>
<path d="M28.2994 10.0001C28.2994 11.5548 27.8654 13.0782 27.047 14.396C26.2287 15.7138 25.059 16.773 23.6716 17.4524C22.2843 18.1318 20.7353 18.404 19.2017 18.2379C17.6681 18.0719 16.2119 17.4743 14.9993 16.5134C15.978 15.7381 16.7692 14.7489 17.3133 13.6204C17.8573 12.492 18.14 11.2537 18.14 9.99899C18.14 8.74432 17.8573 7.50603 17.3133 6.37755C16.7692 5.24908 15.978 4.25988 14.9993 3.48461C16.2119 2.52372 17.6681 1.92609 19.2017 1.76004C20.7353 1.59399 22.2843 1.86623 23.6716 2.54562C25.059 3.22502 26.2287 4.28416 27.047 5.60199C27.8654 6.91981 28.2994 8.44314 28.2994 9.99784V10.0001Z" fill="#DCC7FF"/>
</g>
<defs>
<clipPath id="clip0_35_274">
<rect width="30" height="20" fill="white"/>
</clipPath>
</defs>
</svg>
