<svg width="20" height="20" viewBox="0 0 20 20" fill="none" xmlns="http://www.w3.org/2000/svg">
<path d="M9.0575 13.8588C9.00917 13.8117 8.8025 13.6339 8.6325 13.4683C7.56333 12.4974 5.81333 9.96452 5.27917 8.63882C5.19333 8.43749 5.01167 7.92848 5 7.65652C5 7.39592 5.06 7.14751 5.18167 6.91046C5.35167 6.61495 5.61917 6.3779 5.935 6.24801C6.15417 6.16439 6.81 6.0345 6.82167 6.0345C7.53917 5.90461 8.705 5.83317 9.99333 5.83317C11.2208 5.83317 12.3392 5.90461 13.0675 6.01096C13.0792 6.02314 13.8942 6.15303 14.1733 6.2951C14.6833 6.55569 15 7.0647 15 7.60943L15 7.65652C14.9875 8.01128 14.6708 8.75735 14.6592 8.75735C14.1242 10.0116 12.46 12.486 11.3542 13.4805C11.3542 13.4805 11.07 13.7606 10.8925 13.8824C10.6375 14.0723 10.3217 14.1665 10.0058 14.1665C9.65333 14.1665 9.325 14.0602 9.0575 13.8588Z" fill="#60708F"/>
</svg>
