<svg width="50" height="50" viewBox="0 0 50 50" fill="none" xmlns="http://www.w3.org/2000/svg">
<rect x="0.5" y="0.5" width="49" height="49" rx="13.5" stroke="#F0F1F5"/>
<path d="M20.3692 23.869C20.4257 23.811 20.6391 23.563 20.8378 23.359C22.0029 22.076 25.0424 19.976 26.6332 19.335C26.8748 19.232 27.4856 19.014 27.812 19C28.1247 19 28.4228 19.072 28.7073 19.218C29.0619 19.422 29.3463 19.743 29.5022 20.122C29.6025 20.385 29.7584 21.172 29.7584 21.186C29.9143 22.047 30 23.446 30 24.992C30 26.465 29.9143 27.807 29.7867 28.681C29.772 28.695 29.6162 29.673 29.4457 30.008C29.133 30.62 28.5222 31 27.8685 31H27.812C27.3863 30.985 26.491 30.605 26.491 30.591C24.9859 29.949 22.0166 27.952 20.8232 26.625C20.8232 26.625 20.4871 26.284 20.341 26.071C20.113 25.765 20 25.386 20 25.007C20 24.584 20.1276 24.19 20.3692 23.869Z" fill="#60708F"/>
</svg>
