<svg width="50" height="50" viewBox="0 0 50 50" fill="none" xmlns="http://www.w3.org/2000/svg">
<rect x="0.5" y="0.5" width="49" height="49" rx="13.5" stroke="#F0F1F5"/>
<path fill-rule="evenodd" clip-rule="evenodd" d="M29.5278 16.75C30.757 16.75 31.9395 17.2358 32.8094 18.1076C33.6803 18.9775 34.167 20.1508 34.167 21.3792V28.6208C34.167 31.1783 32.0862 33.25 29.5278 33.25H20.472C17.9136 33.25 15.8337 31.1783 15.8337 28.6208V21.3792C15.8337 18.8217 17.9044 16.75 20.472 16.75H29.5278ZM30.9862 22.745L31.0595 22.6717C31.2786 22.4058 31.2786 22.0208 31.0494 21.755C30.922 21.6184 30.7469 21.535 30.5645 21.5167C30.372 21.5066 30.1887 21.5717 30.0503 21.7L25.917 25C25.3854 25.4409 24.6236 25.4409 24.0837 25L19.9587 21.7C19.6736 21.4892 19.2794 21.5167 19.042 21.7642C18.7945 22.0117 18.767 22.4058 18.9769 22.6808L19.097 22.8L23.2679 26.0542C23.7812 26.4575 24.4036 26.6775 25.0554 26.6775C25.7053 26.6775 26.3387 26.4575 26.8511 26.0542L30.9862 22.745Z" fill="#8B98B1"/>
</svg>
