<svg width="50" height="50" viewBox="0 0 50 50" fill="none" xmlns="http://www.w3.org/2000/svg">
<rect x="0.5" y="0.5" width="49" height="49" rx="13.5" stroke="#F0F1F5"/>
<path fill-rule="evenodd" clip-rule="evenodd" d="M32.1143 25.0009C32.1143 25.7466 32.7266 26.3534 33.4792 26.3534C33.8587 26.3534 34.1667 26.6585 34.1667 27.0346V29.4879C34.1667 31.5624 32.4635 33.25 30.3699 33.25H19.6311C17.5375 33.25 15.8334 31.5624 15.8334 29.4879V27.0346C15.8334 26.6585 16.1414 26.3534 16.5209 26.3534C17.2744 26.3534 17.8867 25.7466 17.8867 25.0009C17.8867 24.2743 17.2991 23.7275 16.5209 23.7275C16.3385 23.7275 16.1643 23.6557 16.035 23.5277C15.9058 23.3996 15.8334 23.2261 15.8334 23.0463L15.8352 20.513C15.8352 18.4385 17.5384 16.75 19.632 16.75H30.368C32.4617 16.75 34.1658 18.4385 34.1658 20.513L34.1667 22.9672C34.1667 23.1471 34.0943 23.3215 33.966 23.4486C33.8367 23.5767 33.6625 23.6485 33.4792 23.6485C32.7266 23.6485 32.1143 24.2552 32.1143 25.0009ZM27.0644 25.594L28.1451 24.5513C28.333 24.3715 28.3981 24.1062 28.3165 23.861C28.2359 23.6158 28.025 23.4414 27.7702 23.4059L26.2769 23.1898L25.6087 21.8491C25.4941 21.6184 25.2613 21.4749 25.0019 21.474H25C24.7415 21.474 24.5087 21.6175 24.3923 21.8482L23.724 23.1898L22.2335 23.405C21.9759 23.4414 21.7651 23.6158 21.6835 23.861C21.6029 24.1062 21.6679 24.3715 21.8549 24.5513L22.9357 25.594L22.6809 27.0682C22.6369 27.3225 22.7404 27.575 22.9513 27.7267C23.0704 27.8112 23.2089 27.8548 23.3491 27.8548C23.4564 27.8548 23.5645 27.8284 23.6635 27.7766L25 27.0809L26.3338 27.7748C26.5648 27.8974 26.8389 27.8784 27.0488 27.7258C27.2605 27.575 27.3641 27.3225 27.3201 27.0682L27.0644 25.594Z" fill="#8B98B1"/>
</svg>
