<svg width="50" height="50" viewBox="0 0 50 50" fill="none" xmlns="http://www.w3.org/2000/svg">
<rect x="0.5" y="0.5" width="49" height="49" rx="13.5" stroke="#F0F1F5"/>
<path fill-rule="evenodd" clip-rule="evenodd" d="M31.1482 22.0635C31.1482 23.2147 31.4525 23.8933 32.1221 24.6753C32.6295 25.2514 32.7917 25.9909 32.7917 26.7932C32.7917 27.5945 32.5284 28.3553 32.0009 28.9729C31.3104 29.7134 30.3365 30.1861 29.3425 30.2682C27.9022 30.391 26.4609 30.4944 25.0005 30.4944C23.5392 30.4944 22.0988 30.4326 20.6585 30.2682C19.6636 30.1861 18.6897 29.7134 18.0001 28.9729C17.4726 28.3553 17.2084 27.5945 17.2084 26.7932C17.2084 25.9909 17.3715 25.2514 17.878 24.6753C18.5686 23.8933 18.8528 23.2147 18.8528 22.0635V21.6729C18.8528 20.1311 19.2373 19.123 20.029 18.136C21.206 16.6967 23.0928 15.8335 24.9595 15.8335H25.0415C26.9483 15.8335 28.8961 16.7383 30.0531 18.2394C30.8038 19.2061 31.1482 20.1718 31.1482 21.6729V22.0635ZM22.3175 32.3893C22.3175 31.9276 22.7412 31.7162 23.1329 31.6257C23.5912 31.5288 26.3835 31.5288 26.8418 31.6257C27.2335 31.7162 27.6571 31.9276 27.6571 32.3893C27.6344 32.8287 27.3765 33.2183 27.0203 33.4657C26.5584 33.8258 26.0164 34.0538 25.4497 34.136C25.1363 34.1766 24.8284 34.1776 24.5259 34.136C23.9583 34.0538 23.4163 33.8258 22.9553 33.4648C22.5981 33.2183 22.3403 32.8287 22.3175 32.3893Z" fill="#8B98B1"/>
</svg>
