<svg width="50" height="50" viewBox="0 0 50 50" fill="none" xmlns="http://www.w3.org/2000/svg">
<rect x="0.5" y="0.5" width="49" height="49" rx="13.5" stroke="#F0F1F5"/>
<path fill-rule="evenodd" clip-rule="evenodd" d="M21.7253 16.75C22.1103 16.75 22.4229 17.0565 22.4229 17.4349C22.4229 17.8125 22.1112 18.119 21.7253 18.119L20.2321 18.1199C18.9927 18.1217 17.9844 19.1114 17.9844 20.3276V22.0318C17.9844 22.4094 17.6709 22.7168 17.2859 22.7168C16.9009 22.7168 16.5883 22.4094 16.5883 22.0318V20.3276C16.5883 18.3572 18.2227 16.7527 20.2311 16.7509L21.7244 16.75H21.7253ZM28.3005 16.7503H29.7607C31.7746 16.7503 33.4118 18.3557 33.4118 20.3305V22.0321C33.4118 22.4096 33.1001 22.7171 32.7142 22.7171C32.3292 22.7171 32.0166 22.4096 32.0166 22.0321V20.3305C32.0166 19.1107 31.0046 18.1184 29.7607 18.1184H28.3005C27.9155 18.1184 27.6029 17.8128 27.6029 17.4352C27.6029 17.0568 27.9155 16.7503 28.3005 16.7503ZM27.5323 20.1808H22.4686C21.3099 20.1925 20.3786 21.121 20.3887 22.2581V23.3997C20.3914 23.5327 20.5005 23.6415 20.6362 23.646H29.3629C29.4994 23.6424 29.6085 23.5336 29.6131 23.3997V22.2581C29.614 21.7089 29.3977 21.1812 29.0072 20.7884C28.6194 20.3992 28.0869 20.1808 27.5323 20.1808ZM15.6151 25.0378H34.3857C34.7707 25.0378 35.0833 25.3443 35.0833 25.7227C35.0833 26.1003 34.7707 26.4059 34.3857 26.4059H33.4122V29.6688C33.4122 31.6446 31.7741 33.25 29.7611 33.25H28.3009C27.915 33.25 27.6024 32.9435 27.6024 32.565C27.6024 32.1875 27.915 31.881 28.3009 31.881H29.7611C31.005 31.881 32.017 30.8895 32.017 29.6688V26.4059H29.6126V27.3147C29.6218 28.4518 28.6914 29.3812 27.5318 29.392H22.4681C21.3095 29.3812 20.379 28.4518 20.3882 27.3147V26.4059H17.9838V29.6724C17.9838 30.8886 18.993 31.8783 20.2333 31.8801L21.7256 31.881C22.1106 31.881 22.4232 32.1875 22.4232 32.565C22.4223 32.9435 22.1106 33.25 21.7247 33.25L20.2315 33.2491C18.223 33.2473 16.5877 31.6428 16.5877 29.6724V26.4059H15.6151C15.2301 26.4059 14.9166 26.1003 14.9166 25.7227C14.9166 25.3443 15.2301 25.0378 15.6151 25.0378Z" fill="#8B98B1"/>
</svg>
