<svg width="50" height="50" viewBox="0 0 50 50" fill="none" xmlns="http://www.w3.org/2000/svg">
<path fill-rule="evenodd" clip-rule="evenodd" d="M32.702 26.4485C33.0299 26.6227 33.2829 26.8977 33.4609 27.1727C33.8075 27.741 33.7794 28.4377 33.4421 29.0518L32.7864 30.1518C32.4397 30.7385 31.7934 31.1052 31.1282 31.1052C30.8004 31.1052 30.435 31.0135 30.1352 30.8302C29.8917 30.6743 29.6106 30.6193 29.3109 30.6193C28.3834 30.6193 27.6059 31.3802 27.5778 32.2877C27.5778 33.3418 26.7159 34.1668 25.6386 34.1668H24.3646C23.2779 34.1668 22.416 33.3418 22.416 32.2877C22.3973 31.3802 21.6198 30.6193 20.6923 30.6193C20.3832 30.6193 20.1022 30.6743 19.868 30.8302C19.5682 31.0135 19.1935 31.1052 18.875 31.1052C18.2005 31.1052 17.5541 30.7385 17.2075 30.1518L16.5611 29.0518C16.2145 28.456 16.1957 27.741 16.5423 27.1727C16.6922 26.8977 16.9733 26.6227 17.2918 26.4485C17.5541 26.3202 17.7227 26.1093 17.882 25.8618C18.3504 25.0735 18.0693 24.0377 17.273 23.5702C16.3456 23.0477 16.0458 21.8835 16.5798 20.976L17.2075 19.8943C17.7508 18.9868 18.9124 18.666 19.8492 19.1977C20.6642 19.6377 21.7228 19.3443 22.2006 18.5652C22.3505 18.3085 22.4348 18.0335 22.416 17.7585C22.3973 17.401 22.5004 17.0618 22.6783 16.7868C23.025 16.2185 23.6526 15.8518 24.3365 15.8335H25.6574C26.3506 15.8335 26.9782 16.2185 27.3248 16.7868C27.4935 17.0618 27.6059 17.401 27.5778 17.7585C27.559 18.0335 27.6434 18.3085 27.7932 18.5652C28.271 19.3443 29.3296 19.6377 30.154 19.1977C31.0814 18.666 32.2524 18.9868 32.7864 19.8943L33.414 20.976C33.9574 21.8835 33.6576 23.0477 32.7208 23.5702C31.9245 24.0377 31.6435 25.0735 32.1212 25.8618C32.2711 26.1093 32.4397 26.3202 32.702 26.4485ZM22.3505 25.0093C22.3505 26.4485 23.5402 27.5943 25.011 27.5943C26.4818 27.5943 27.6434 26.4485 27.6434 25.0093C27.6434 23.5702 26.4818 22.4152 25.011 22.4152C23.5402 22.4152 22.3505 23.5702 22.3505 25.0093Z" fill="#60708F"/>
<rect x="0.5" y="0.5" width="49" height="49" rx="13.5" stroke="#F0F1F5"/>
</svg>
